<?xml version="1.0" encoding="UTF-8"?>
<svg width="200" height="200" viewBox="0 0 200 200" fill="none" xmlns="http://www.w3.org/2000/svg">
  <rect width="200" height="200" rx="100" fill="#E51C23"/>
  <path d="M100 50C72.4 50 50 72.4 50 100C50 127.6 72.4 150 100 150C127.6 150 150 127.6 150 100C150 72.4 127.6 50 100 50ZM100 140C77.9 140 60 122.1 60 100C60 77.9 77.9 60 100 60C122.1 60 140 77.9 140 100C140 122.1 122.1 140 100 140Z" fill="white"/>
  <path d="M100 70C83.5 70 70 83.5 70 100C70 116.5 83.5 130 100 130C116.5 130 130 116.5 130 100C130 83.5 116.5 70 100 70ZM110 120H90V110H100V100H90V90H100V100H110V120Z" fill="white"/>
</svg>
